<svg preserveAspectRatio="none" overflow="visible" style="display: block;" width="16.6681" height="15.3333" viewBox="0 0 16.6681 15.3333" fill="none" xmlns="http://www.w3.org/2000/svg">
<g id="Margin">
<path id="Icon" d="M7.04167 11.5833C7.375 11.9167 7.80556 12.0799 8.33333 12.0729C8.86111 12.066 9.25 11.875 9.5 11.5L14.1667 4.5L7.16667 9.16667C6.79167 9.41667 6.59375 9.79861 6.57292 10.3125C6.55208 10.8264 6.70833 11.25 7.04167 11.5833V11.5833M8.33333 2C9.15278 2 9.94097 2.11458 10.6979 2.34375C11.4549 2.57292 12.1667 2.91667 12.8333 3.375L11.25 4.375C10.7917 4.13889 10.316 3.96181 9.82292 3.84375C9.32986 3.72569 8.83333 3.66667 8.33333 3.66667C6.48611 3.66667 4.91319 4.31597 3.61458 5.61458C2.31597 6.91319 1.66667 8.48611 1.66667 10.3333C1.66667 10.9167 1.74653 11.4931 1.90625 12.0625C2.06597 12.6319 2.29167 13.1667 2.58333 13.6667H14.0833C14.4028 13.1389 14.6354 12.5903 14.7812 12.0208C14.9271 11.4514 15 10.8611 15 10.25C15 9.75 14.941 9.26389 14.8229 8.79167C14.7049 8.31944 14.5278 7.86111 14.2917 7.41667L15.2917 5.83333C15.7083 6.48611 16.0382 7.18056 16.2812 7.91667C16.5243 8.65278 16.6528 9.41667 16.6667 10.2083C16.6806 11 16.5903 11.7569 16.3958 12.4792C16.2014 13.2014 15.9167 13.8889 15.5417 14.5417C15.3889 14.7917 15.1806 14.9861 14.9167 15.125C14.6528 15.2639 14.375 15.3333 14.0833 15.3333H2.58333C2.29167 15.3333 2.01389 15.2639 1.75 15.125C1.48611 14.9861 1.27778 14.7917 1.125 14.5417C0.763889 13.9167 0.486111 13.2535 0.291667 12.5521C0.0972222 11.8507 0 11.1111 0 10.3333C0 9.18056 0.21875 8.10069 0.65625 7.09375C1.09375 6.08681 1.69097 5.20486 2.44792 4.44792C3.20486 3.69097 4.09028 3.09375 5.10417 2.65625C6.11806 2.21875 7.19444 2 8.33333 2V2M8.47917 8.52083V8.52083V8.52083V8.52083V8.52083V8.52083V8.52083V8.52083V8.52083V8.52083V8.52083V8.52083V8.52083V8.52083V8.52083V8.52083" fill="#005F62"/>
</g>
</svg>
