<svg preserveAspectRatio="none" overflow="visible" style="display: block;" width="390.487" height="201.297" viewBox="0 0 390.487 201.297" fill="none" xmlns="http://www.w3.org/2000/svg">
<g id="Group" opacity="0.6">
<path id="Vector" d="M0 21.1893C0 22.4423 1.01727 23.4596 2.27027 23.4596C3.52327 23.4596 4.54054 22.4423 4.54054 21.1893C4.54054 19.9363 3.52327 18.919 2.27027 18.919C1.01727 18.919 0 19.9363 0 21.1893V21.1893" fill="#228589"/>
<path id="Vector_2" d="M15.1351 17.4055C15.1351 18.6585 16.1524 19.6758 17.4054 19.6758C18.6584 19.6758 19.6757 18.6585 19.6757 17.4055C19.6757 16.1525 18.6584 15.1353 17.4054 15.1353C16.1524 15.1353 15.1351 16.1525 15.1351 17.4055V17.4055" fill="#228589"/>
<path id="Vector_3" d="M30.2703 13.6217C30.2703 14.8747 31.2875 15.892 32.5405 15.892C33.7935 15.892 34.8108 14.8747 34.8108 13.6217C34.8108 12.3687 33.7935 11.3515 32.5405 11.3515C31.2875 11.3515 30.2703 12.3687 30.2703 13.6217V13.6217" fill="#228589"/>
<path id="Vector_4" d="M45.4054 9.83794C45.4054 11.0909 46.4227 12.1082 47.6757 12.1082C48.9287 12.1082 49.9459 11.0909 49.9459 9.83794C49.9459 8.58495 48.9287 7.56767 47.6757 7.56767C46.4227 7.56767 45.4054 8.58495 45.4054 9.83794V9.83794" fill="#228589"/>
<path id="Vector_5" d="M60.5405 6.05416C60.5405 7.30716 61.5578 8.32443 62.8108 8.32443C64.0638 8.32443 65.0811 7.30716 65.0811 6.05416C65.0811 4.80116 64.0638 3.78389 62.8108 3.78389C61.5578 3.78389 60.5405 4.80116 60.5405 6.05416V6.05416" fill="#228589"/>
<path id="Vector_6" d="M75.6757 9.83794C75.6757 11.0909 76.6929 12.1082 77.9459 12.1082C79.1989 12.1082 80.2162 11.0909 80.2162 9.83794C80.2162 8.58495 79.1989 7.56767 77.9459 7.56767C76.6929 7.56767 75.6757 8.58495 75.6757 9.83794V9.83794" fill="#228589"/>
<path id="Vector_7" d="M90.8108 13.6217C90.8108 14.8747 91.8281 15.892 93.0811 15.892C94.3341 15.892 95.3514 14.8747 95.3514 13.6217C95.3514 12.3687 94.3341 11.3515 93.0811 11.3515C91.8281 11.3515 90.8108 12.3687 90.8108 13.6217V13.6217" fill="#228589"/>
<path id="Vector_8" d="M105.946 21.1893C105.946 22.4423 106.963 23.4596 108.216 23.4596C109.469 23.4596 110.486 22.4423 110.486 21.1893C110.486 19.9363 109.469 18.919 108.216 18.919C106.963 18.919 105.946 19.9363 105.946 21.1893V21.1893" fill="#228589"/>
<path id="Vector_9" d="M7.56757 32.5407C7.56757 33.7937 8.58484 34.8109 9.83784 34.8109C11.0908 34.8109 12.1081 33.7937 12.1081 32.5407C12.1081 31.2877 11.0908 30.2704 9.83784 30.2704C8.58484 30.2704 7.56757 31.2877 7.56757 32.5407V32.5407" fill="#228589"/>
<path id="Vector_10" d="M22.7027 28.7569C22.7027 30.0099 23.72 31.0271 24.973 31.0271C26.226 31.0271 27.2432 30.0099 27.2432 28.7569C27.2432 27.5039 26.226 26.4866 24.973 26.4866C23.72 26.4866 22.7027 27.5039 22.7027 28.7569V28.7569" fill="#228589"/>
<path id="Vector_11" d="M37.8378 24.9731C37.8378 26.2261 38.8551 27.2434 40.1081 27.2434C41.3611 27.2434 42.3784 26.2261 42.3784 24.9731C42.3784 23.7201 41.3611 22.7028 40.1081 22.7028C38.8551 22.7028 37.8378 23.7201 37.8378 24.9731V24.9731" fill="#228589"/>
<path id="Vector_12" d="M52.973 21.1893C52.973 22.4423 53.9903 23.4596 55.2432 23.4596C56.4962 23.4596 57.5135 22.4423 57.5135 21.1893C57.5135 19.9363 56.4962 18.919 55.2432 18.919C53.9903 18.919 52.973 19.9363 52.973 21.1893V21.1893" fill="#228589"/>
<path id="Vector_13" d="M68.1081 24.9731C68.1081 26.2261 69.1254 27.2434 70.3784 27.2434C71.6314 27.2434 72.6486 26.2261 72.6486 24.9731C72.6486 23.7201 71.6314 22.7028 70.3784 22.7028C69.1254 22.7028 68.1081 23.7201 68.1081 24.9731V24.9731" fill="#228589"/>
<path id="Vector_14" d="M83.2432 28.7569C83.2432 30.0099 84.2605 31.0271 85.5135 31.0271C86.7665 31.0271 87.7838 30.0099 87.7838 28.7569C87.7838 27.5039 86.7665 26.4866 85.5135 26.4866C84.2605 26.4866 83.2432 27.5039 83.2432 28.7569V28.7569" fill="#228589"/>
<path id="Vector_15" d="M98.3784 36.3244C98.3784 37.5774 99.3957 38.5947 100.649 38.5947C101.902 38.5947 102.919 37.5774 102.919 36.3244C102.919 35.0714 101.902 34.0542 100.649 34.0542C99.3957 34.0542 98.3784 35.0714 98.3784 36.3244V36.3244" fill="#228589"/>
<path id="Vector_16" d="M15.1351 43.892C15.1351 45.145 16.1524 46.1623 17.4054 46.1623C18.6584 46.1623 19.6757 45.145 19.6757 43.892C19.6757 42.639 18.6584 41.6217 17.4054 41.6217C16.1524 41.6217 15.1351 42.639 15.1351 43.892V43.892" fill="#228589"/>
<path id="Vector_17" d="M30.2703 40.1082C30.2703 41.3612 31.2875 42.3785 32.5405 42.3785C33.7935 42.3785 34.8108 41.3612 34.8108 40.1082C34.8108 38.8552 33.7935 37.838 32.5405 37.838C31.2875 37.838 30.2703 38.8552 30.2703 40.1082V40.1082" fill="#228589"/>
<path id="Vector_18" d="M45.4054 36.3244C45.4054 37.5774 46.4227 38.5947 47.6757 38.5947C48.9287 38.5947 49.9459 37.5774 49.9459 36.3244C49.9459 35.0714 48.9287 34.0542 47.6757 34.0542C46.4227 34.0542 45.4054 35.0714 45.4054 36.3244V36.3244" fill="#228589"/>
<path id="Vector_19" d="M60.5405 36.3244C60.5405 37.5774 61.5578 38.5947 62.8108 38.5947C64.0638 38.5947 65.0811 37.5774 65.0811 36.3244C65.0811 35.0714 64.0638 34.0542 62.8108 34.0542C61.5578 34.0542 60.5405 35.0714 60.5405 36.3244V36.3244" fill="#228589"/>
<path id="Vector_20" d="M75.6757 40.1082C75.6757 41.3612 76.6929 42.3785 77.9459 42.3785C79.1989 42.3785 80.2162 41.3612 80.2162 40.1082C80.2162 38.8552 79.1989 37.838 77.9459 37.838C76.6929 37.838 75.6757 38.8552 75.6757 40.1082V40.1082" fill="#228589"/>
<path id="Vector_21" d="M90.8108 47.6758C90.8108 48.9288 91.8281 49.9461 93.0811 49.9461C94.3341 49.9461 95.3514 48.9288 95.3514 47.6758C95.3514 46.4228 94.3341 45.4055 93.0811 45.4055C91.8281 45.4055 90.8108 46.4228 90.8108 47.6758V47.6758" fill="#228589"/>
<path id="Vector_22" d="M22.7027 55.2434C22.7027 56.4964 23.72 57.5136 24.973 57.5136C26.226 57.5136 27.2432 56.4964 27.2432 55.2434C27.2432 53.9904 26.226 52.9731 24.973 52.9731C23.72 52.9731 22.7027 53.9904 22.7027 55.2434V55.2434" fill="#228589"/>
<path id="Vector_23" d="M37.8378 51.4596C37.8378 52.7126 38.8551 53.7298 40.1081 53.7298C41.3611 53.7298 42.3784 52.7126 42.3784 51.4596C42.3784 50.2066 41.3611 49.1893 40.1081 49.1893C38.8551 49.1893 37.8378 50.2066 37.8378 51.4596V51.4596" fill="#228589"/>
<path id="Vector_24" d="M52.973 49.9461C52.973 51.1991 53.9903 52.2163 55.2432 52.2163C56.4962 52.2163 57.5135 51.1991 57.5135 49.9461C57.5135 48.6931 56.4962 47.6758 55.2432 47.6758C53.9903 47.6758 52.973 48.6931 52.973 49.9461V49.9461" fill="#228589"/>
<path id="Vector_25" d="M68.1081 51.4596C68.1081 52.7126 69.1254 53.7298 70.3784 53.7298C71.6314 53.7298 72.6486 52.7126 72.6486 51.4596C72.6486 50.2066 71.6314 49.1893 70.3784 49.1893C69.1254 49.1893 68.1081 50.2066 68.1081 51.4596V51.4596" fill="#228589"/>
<path id="Vector_26" d="M83.2432 59.0271C83.2432 60.2801 84.2605 61.2974 85.5135 61.2974C86.7665 61.2974 87.7838 60.2801 87.7838 59.0271C87.7838 57.7741 86.7665 56.7569 85.5135 56.7569C84.2605 56.7569 83.2432 57.7741 83.2432 59.0271V59.0271" fill="#228589"/>
<path id="Vector_27" d="M45.4054 66.5947C45.4054 67.8477 46.4227 68.865 47.6757 68.865C48.9287 68.865 49.9459 67.8477 49.9459 66.5947C49.9459 65.3417 48.9287 64.3244 47.6757 64.3244C46.4227 64.3244 45.4054 65.3417 45.4054 66.5947V66.5947" fill="#228589"/>
<path id="Vector_28" d="M60.5405 66.5947C60.5405 67.8477 61.5578 68.865 62.8108 68.865C64.0638 68.865 65.0811 67.8477 65.0811 66.5947C65.0811 65.3417 64.0638 64.3244 62.8108 64.3244C61.5578 64.3244 60.5405 65.3417 60.5405 66.5947V66.5947" fill="#228589"/>
<path id="Vector_29" d="M75.6757 74.1623C75.6757 75.4153 76.6929 76.4326 77.9459 76.4326C79.1989 76.4326 80.2162 75.4153 80.2162 74.1623C80.2162 72.9093 79.1989 71.892 77.9459 71.892C76.6929 71.892 75.6757 72.9093 75.6757 74.1623V74.1623" fill="#228589"/>
<path id="Vector_30" d="M60.5405 81.7298C60.5405 82.9828 61.5578 84.0001 62.8108 84.0001C64.0638 84.0001 65.0811 82.9828 65.0811 81.7298C65.0811 80.4769 64.0638 79.4596 62.8108 79.4596C61.5578 79.4596 60.5405 80.4769 60.5405 81.7298V81.7298" fill="#228589"/>
<path id="Vector_31" d="M75.6757 85.5136C75.6757 86.7666 76.6929 87.7839 77.9459 87.7839C79.1989 87.7839 80.2162 86.7666 80.2162 85.5136C80.2162 84.2606 79.1989 83.2434 77.9459 83.2434C76.6929 83.2434 75.6757 84.2606 75.6757 85.5136V85.5136" fill="#228589"/>
<path id="Vector_32" d="M83.2432 96.865C83.2432 98.118 84.2605 99.1353 85.5135 99.1353C86.7665 99.1353 87.7838 98.118 87.7838 96.865C87.7838 95.612 86.7665 94.5947 85.5135 94.5947C84.2605 94.5947 83.2432 95.612 83.2432 96.865V96.865" fill="#228589"/>
<path id="Vector_33" d="M90.8108 108.216C90.8108 109.469 91.8281 110.487 93.0811 110.487C94.3341 110.487 95.3514 109.469 95.3514 108.216C95.3514 106.963 94.3341 105.946 93.0811 105.946C91.8281 105.946 90.8108 106.963 90.8108 108.216V108.216" fill="#228589"/>
<path id="Vector_34" d="M98.3784 119.568C98.3784 120.821 99.3957 121.838 100.649 121.838C101.902 121.838 102.919 120.821 102.919 119.568C102.919 118.315 101.902 117.297 100.649 117.297C99.3957 117.297 98.3784 118.315 98.3784 119.568V119.568" fill="#228589"/>
<path id="Vector_35" d="M105.946 130.919C105.946 132.172 106.963 133.189 108.216 133.189C109.469 133.189 110.486 132.172 110.486 130.919C110.486 129.666 109.469 128.649 108.216 128.649C106.963 128.649 105.946 129.666 105.946 130.919V130.919" fill="#228589"/>
<path id="Vector_36" d="M113.514 142.27C113.514 143.523 114.531 144.541 115.784 144.541C117.037 144.541 118.054 143.523 118.054 142.27C118.054 141.017 117.037 140 115.784 140C114.531 140 113.514 141.017 113.514 142.27V142.27" fill="#228589"/>
<path id="Vector_37" d="M117.297 153.622C117.297 154.875 118.315 155.892 119.568 155.892C120.821 155.892 121.838 154.875 121.838 153.622C121.838 152.369 120.821 151.351 119.568 151.351C118.315 151.351 117.297 152.369 117.297 153.622V153.622" fill="#228589"/>
<path id="Vector_38" d="M113.514 164.973C113.514 166.226 114.531 167.243 115.784 167.243C117.037 167.243 118.054 166.226 118.054 164.973C118.054 163.72 117.037 162.703 115.784 162.703C114.531 162.703 113.514 163.72 113.514 164.973V164.973" fill="#228589"/>
<path id="Vector_39" d="M105.946 176.324C105.946 177.577 106.963 178.595 108.216 178.595C109.469 178.595 110.486 177.577 110.486 176.324C110.486 175.071 109.469 174.054 108.216 174.054C106.963 174.054 105.946 175.071 105.946 176.324V176.324" fill="#228589"/>
<path id="Vector_40" d="M98.3784 187.676C98.3784 188.929 99.3957 189.946 100.649 189.946C101.902 189.946 102.919 188.929 102.919 187.676C102.919 186.423 101.902 185.406 100.649 185.406C99.3957 185.406 98.3784 186.423 98.3784 187.676V187.676" fill="#228589"/>
<path id="Vector_41" d="M90.8108 199.027C90.8108 200.28 91.8281 201.297 93.0811 201.297C94.3341 201.297 95.3514 200.28 95.3514 199.027C95.3514 197.774 94.3341 196.757 93.0811 196.757C91.8281 196.757 90.8108 197.774 90.8108 199.027V199.027" fill="#228589"/>
<path id="Vector_42" d="M189.189 6.05416C189.189 7.30716 190.206 8.32443 191.459 8.32443C192.712 8.32443 193.73 7.30716 193.73 6.05416C193.73 4.80116 192.712 3.78389 191.459 3.78389C190.206 3.78389 189.189 4.80116 189.189 6.05416V6.05416" fill="#228589"/>
<path id="Vector_43" d="M204.324 2.27038C204.324 3.52337 205.342 4.54065 206.595 4.54065C207.848 4.54065 208.865 3.52337 208.865 2.27038C208.865 1.01738 207.848 0.000106812 206.595 0.000106812C205.342 0.000106812 204.324 1.01738 204.324 2.27038V2.27038" fill="#228589"/>
<path id="Vector_44" d="M219.459 2.27038C219.459 3.52337 220.477 4.54065 221.73 4.54065C222.983 4.54065 224 3.52337 224 2.27038C224 1.01738 222.983 0.000106812 221.73 0.000106812C220.477 0.000106812 219.459 1.01738 219.459 2.27038V2.27038" fill="#228589"/>
<path id="Vector_45" d="M234.595 6.05416C234.595 7.30716 235.612 8.32443 236.865 8.32443C238.118 8.32443 239.135 7.30716 239.135 6.05416C239.135 4.80116 238.118 3.78389 236.865 3.78389C235.612 3.78389 234.595 4.80116 234.595 6.05416V6.05416" fill="#228589"/>
<path id="Vector_46" d="M249.73 9.83794C249.73 11.0909 250.747 12.1082 252 12.1082C253.253 12.1082 254.27 11.0909 254.27 9.83794C254.27 8.58495 253.253 7.56767 252 7.56767C250.747 7.56767 249.73 8.58495 249.73 9.83794V9.83794" fill="#228589"/>
<path id="Vector_47" d="M264.865 13.6217C264.865 14.8747 265.882 15.892 267.135 15.892C268.388 15.892 269.405 14.8747 269.405 13.6217C269.405 12.3687 268.388 11.3515 267.135 11.3515C265.882 11.3515 264.865 12.3687 264.865 13.6217V13.6217" fill="#228589"/>
<path id="Vector_48" d="M196.757 17.4055C196.757 18.6585 197.774 19.6758 199.027 19.6758C200.28 19.6758 201.297 18.6585 201.297 17.4055C201.297 16.1525 200.28 15.1353 199.027 15.1353C197.774 15.1353 196.757 16.1525 196.757 17.4055V17.4055" fill="#228589"/>
<path id="Vector_49" d="M211.892 13.6217C211.892 14.8747 212.909 15.892 214.162 15.892C215.415 15.892 216.432 14.8747 216.432 13.6217C216.432 12.3687 215.415 11.3515 214.162 11.3515C212.909 11.3515 211.892 12.3687 211.892 13.6217V13.6217" fill="#228589"/>
<path id="Vector_50" d="M227.027 13.6217C227.027 14.8747 228.044 15.892 229.297 15.892C230.55 15.892 231.568 14.8747 231.568 13.6217C231.568 12.3687 230.55 11.3515 229.297 11.3515C228.044 11.3515 227.027 12.3687 227.027 13.6217V13.6217" fill="#228589"/>
<path id="Vector_51" d="M242.162 17.4055C242.162 18.6585 243.179 19.6758 244.432 19.6758C245.685 19.6758 246.703 18.6585 246.703 17.4055C246.703 16.1525 245.685 15.1353 244.432 15.1353C243.179 15.1353 242.162 16.1525 242.162 17.4055V17.4055" fill="#228589"/>
<path id="Vector_52" d="M257.297 21.1893C257.297 22.4423 258.315 23.4596 259.568 23.4596C260.821 23.4596 261.838 22.4423 261.838 21.1893C261.838 19.9363 260.821 18.919 259.568 18.919C258.315 18.919 257.297 19.9363 257.297 21.1893V21.1893" fill="#228589"/>
<path id="Vector_53" d="M272.432 24.9731C272.432 26.2261 273.45 27.2434 274.703 27.2434C275.956 27.2434 276.973 26.2261 276.973 24.9731C276.973 23.7201 275.956 22.7028 274.703 22.7028C273.45 22.7028 272.432 23.7201 272.432 24.9731V24.9731" fill="#228589"/>
<path id="Vector_54" d="M204.324 28.7569C204.324 30.0099 205.342 31.0271 206.595 31.0271C207.848 31.0271 208.865 30.0099 208.865 28.7569C208.865 27.5039 207.848 26.4866 206.595 26.4866C205.342 26.4866 204.324 27.5039 204.324 28.7569V28.7569" fill="#228589"/>
<path id="Vector_55" d="M219.459 24.9731C219.459 26.2261 220.477 27.2434 221.73 27.2434C222.983 27.2434 224 26.2261 224 24.9731C224 23.7201 222.983 22.7028 221.73 22.7028C220.477 22.7028 219.459 23.7201 219.459 24.9731V24.9731" fill="#228589"/>
<path id="Vector_56" d="M234.595 24.9731C234.595 26.2261 235.612 27.2434 236.865 27.2434C238.118 27.2434 239.135 26.2261 239.135 24.9731C239.135 23.7201 238.118 22.7028 236.865 22.7028C235.612 22.7028 234.595 23.7201 234.595 24.9731V24.9731" fill="#228589"/>
<path id="Vector_57" d="M249.73 28.7569C249.73 30.0099 250.747 31.0271 252 31.0271C253.253 31.0271 254.27 30.0099 254.27 28.7569C254.27 27.5039 253.253 26.4866 252 26.4866C250.747 26.4866 249.73 27.5039 249.73 28.7569V28.7569" fill="#228589"/>
<path id="Vector_58" d="M264.865 32.5407C264.865 33.7937 265.882 34.8109 267.135 34.8109C268.388 34.8109 269.405 33.7937 269.405 32.5407C269.405 31.2877 268.388 30.2704 267.135 30.2704C265.882 30.2704 264.865 31.2877 264.865 32.5407V32.5407" fill="#228589"/>
<path id="Vector_59" d="M280 36.3244C280 37.5774 281.017 38.5947 282.27 38.5947C283.523 38.5947 284.541 37.5774 284.541 36.3244C284.541 35.0714 283.523 34.0542 282.27 34.0542C281.017 34.0542 280 35.0714 280 36.3244V36.3244" fill="#228589"/>
<path id="Vector_60" d="M211.892 40.1082C211.892 41.3612 212.909 42.3785 214.162 42.3785C215.415 42.3785 216.432 41.3612 216.432 40.1082C216.432 38.8552 215.415 37.838 214.162 37.838C212.909 37.838 211.892 38.8552 211.892 40.1082V40.1082" fill="#228589"/>
<path id="Vector_61" d="M227.027 36.3244C227.027 37.5774 228.044 38.5947 229.297 38.5947C230.55 38.5947 231.568 37.5774 231.568 36.3244C231.568 35.0714 230.55 34.0542 229.297 34.0542C228.044 34.0542 227.027 35.0714 227.027 36.3244V36.3244" fill="#228589"/>
<path id="Vector_62" d="M242.162 36.3244C242.162 37.5774 243.179 38.5947 244.432 38.5947C245.685 38.5947 246.703 37.5774 246.703 36.3244C246.703 35.0714 245.685 34.0542 244.432 34.0542C243.179 34.0542 242.162 35.0714 242.162 36.3244V36.3244" fill="#228589"/>
<path id="Vector_63" d="M257.297 40.1082C257.297 41.3612 258.315 42.3785 259.568 42.3785C260.821 42.3785 261.838 41.3612 261.838 40.1082C261.838 38.8552 260.821 37.838 259.568 37.838C258.315 37.838 257.297 38.8552 257.297 40.1082V40.1082" fill="#228589"/>
<path id="Vector_64" d="M272.432 43.892C272.432 45.145 273.45 46.1623 274.703 46.1623C275.956 46.1623 276.973 45.145 276.973 43.892C276.973 42.639 275.956 41.6217 274.703 41.6217C273.45 41.6217 272.432 42.639 272.432 43.892V43.892" fill="#228589"/>
<path id="Vector_65" d="M287.568 47.6758C287.568 48.9288 288.585 49.9461 289.838 49.9461C291.091 49.9461 292.108 48.9288 292.108 47.6758C292.108 46.4228 291.091 45.4055 289.838 45.4055C288.585 45.4055 287.568 46.4228 287.568 47.6758V47.6758" fill="#228589"/>
<path id="Vector_66" d="M219.459 51.4596C219.459 52.7126 220.477 53.7298 221.73 53.7298C222.983 53.7298 224 52.7126 224 51.4596C224 50.2066 222.983 49.1893 221.73 49.1893C220.477 49.1893 219.459 50.2066 219.459 51.4596V51.4596" fill="#228589"/>
<path id="Vector_67" d="M234.595 47.6758C234.595 48.9288 235.612 49.9461 236.865 49.9461C238.118 49.9461 239.135 48.9288 239.135 47.6758C239.135 46.4228 238.118 45.4055 236.865 45.4055C235.612 45.4055 234.595 46.4228 234.595 47.6758V47.6758" fill="#228589"/>
<path id="Vector_68" d="M249.73 47.6758C249.73 48.9288 250.747 49.9461 252 49.9461C253.253 49.9461 254.27 48.9288 254.27 47.6758C254.27 46.4228 253.253 45.4055 252 45.4055C250.747 45.4055 249.73 46.4228 249.73 47.6758V47.6758" fill="#228589"/>
<path id="Vector_69" d="M264.865 51.4596C264.865 52.7126 265.882 53.7298 267.135 53.7298C268.388 53.7298 269.405 52.7126 269.405 51.4596C269.405 50.2066 268.388 49.1893 267.135 49.1893C265.882 49.1893 264.865 50.2066 264.865 51.4596V51.4596" fill="#228589"/>
<path id="Vector_70" d="M280 55.2434C280 56.4964 281.017 57.5136 282.27 57.5136C283.523 57.5136 284.541 56.4964 284.541 55.2434C284.541 53.9904 283.523 52.9731 282.27 52.9731C281.017 52.9731 280 53.9904 280 55.2434V55.2434" fill="#228589"/>
<path id="Vector_71" d="M227.027 62.8109C227.027 64.0639 228.044 65.0812 229.297 65.0812C230.55 65.0812 231.568 64.0639 231.568 62.8109C231.568 61.5579 230.55 60.5406 229.297 60.5406C228.044 60.5406 227.027 61.5579 227.027 62.8109V62.8109" fill="#228589"/>
<path id="Vector_72" d="M242.162 59.0271C242.162 60.2801 243.179 61.2974 244.432 61.2974C245.685 61.2974 246.703 60.2801 246.703 59.0271C246.703 57.7741 245.685 56.7569 244.432 56.7569C243.179 56.7569 242.162 57.7741 242.162 59.0271V59.0271" fill="#228589"/>
<path id="Vector_73" d="M257.297 62.8109C257.297 64.0639 258.315 65.0812 259.568 65.0812C260.821 65.0812 261.838 64.0639 261.838 62.8109C261.838 61.5579 260.821 60.5406 259.568 60.5406C258.315 60.5406 257.297 61.5579 257.297 62.8109V62.8109" fill="#228589"/>
<path id="Vector_74" d="M272.432 66.5947C272.432 67.8477 273.45 68.865 274.703 68.865C275.956 68.865 276.973 67.8477 276.973 66.5947C276.973 65.3417 275.956 64.3244 274.703 64.3244C273.45 64.3244 272.432 65.3417 272.432 66.5947V66.5947" fill="#228589"/>
<path id="Vector_75" d="M234.595 74.1623C234.595 75.4153 235.612 76.4326 236.865 76.4326C238.118 76.4326 239.135 75.4153 239.135 74.1623C239.135 72.9093 238.118 71.892 236.865 71.892C235.612 71.892 234.595 72.9093 234.595 74.1623V74.1623" fill="#228589"/>
<path id="Vector_76" d="M249.73 70.3785C249.73 71.6315 250.747 72.6488 252 72.6488C253.253 72.6488 254.27 71.6315 254.27 70.3785C254.27 69.1255 253.253 68.1082 252 68.1082C250.747 68.1082 249.73 69.1255 249.73 70.3785V70.3785" fill="#228589"/>
<path id="Vector_77" d="M264.865 74.1623C264.865 75.4153 265.882 76.4326 267.135 76.4326C268.388 76.4326 269.405 75.4153 269.405 74.1623C269.405 72.9093 268.388 71.892 267.135 71.892C265.882 71.892 264.865 72.9093 264.865 74.1623V74.1623" fill="#228589"/>
<path id="Vector_78" d="M242.162 85.5136C242.162 86.7666 243.179 87.7839 244.432 87.7839C245.685 87.7839 246.703 86.7666 246.703 85.5136C246.703 84.2606 245.685 83.2434 244.432 83.2434C243.179 83.2434 242.162 84.2606 242.162 85.5136V85.5136" fill="#228589"/>
<path id="Vector_79" d="M257.297 81.7298C257.297 82.9828 258.315 84.0001 259.568 84.0001C260.821 84.0001 261.838 82.9828 261.838 81.7298C261.838 80.4769 260.821 79.4596 259.568 79.4596C258.315 79.4596 257.297 80.4769 257.297 81.7298V81.7298" fill="#228589"/>
<path id="Vector_80" d="M272.432 85.5136C272.432 86.7666 273.45 87.7839 274.703 87.7839C275.956 87.7839 276.973 86.7666 276.973 85.5136C276.973 84.2606 275.956 83.2434 274.703 83.2434C273.45 83.2434 272.432 84.2606 272.432 85.5136V85.5136" fill="#228589"/>
<path id="Vector_81" d="M249.73 96.865C249.73 98.118 250.747 99.1353 252 99.1353C253.253 99.1353 254.27 98.118 254.27 96.865C254.27 95.612 253.253 94.5947 252 94.5947C250.747 94.5947 249.73 95.612 249.73 96.865V96.865" fill="#228589"/>
<path id="Vector_82" d="M264.865 93.0812C264.865 94.3342 265.882 95.3515 267.135 95.3515C268.388 95.3515 269.405 94.3342 269.405 93.0812C269.405 91.8282 268.388 90.8109 267.135 90.8109C265.882 90.8109 264.865 91.8282 264.865 93.0812V93.0812" fill="#228589"/>
<path id="Vector_83" d="M257.297 108.216C257.297 109.469 258.315 110.487 259.568 110.487C260.821 110.487 261.838 109.469 261.838 108.216C261.838 106.963 260.821 105.946 259.568 105.946C258.315 105.946 257.297 106.963 257.297 108.216V108.216" fill="#228589"/>
<path id="Vector_84" d="M261.081 119.568C261.081 120.821 262.098 121.838 263.351 121.838C264.604 121.838 265.622 120.821 265.622 119.568C265.622 118.315 264.604 117.297 263.351 117.297C262.098 117.297 261.081 118.315 261.081 119.568V119.568" fill="#228589"/>
<path id="Vector_85" d="M325.405 13.6217C325.405 14.8747 326.423 15.892 327.676 15.892C328.929 15.892 329.946 14.8747 329.946 13.6217C329.946 12.3687 328.929 11.3515 327.676 11.3515C326.423 11.3515 325.405 12.3687 325.405 13.6217V13.6217" fill="#228589"/>
<path id="Vector_86" d="M340.541 17.4055C340.541 18.6585 341.558 19.6758 342.811 19.6758C344.064 19.6758 345.081 18.6585 345.081 17.4055C345.081 16.1525 344.064 15.1353 342.811 15.1353C341.558 15.1353 340.541 16.1525 340.541 17.4055V17.4055" fill="#228589"/>
<path id="Vector_87" d="M355.676 21.1893C355.676 22.4423 356.693 23.4596 357.946 23.4596C359.199 23.4596 360.216 22.4423 360.216 21.1893C360.216 19.9363 359.199 18.919 357.946 18.919C356.693 18.919 355.676 19.9363 355.676 21.1893V21.1893" fill="#228589"/>
<path id="Vector_88" d="M370.811 24.9731C370.811 26.2261 371.828 27.2434 373.081 27.2434C374.334 27.2434 375.351 26.2261 375.351 24.9731C375.351 23.7201 374.334 22.7028 373.081 22.7028C371.828 22.7028 370.811 23.7201 370.811 24.9731V24.9731" fill="#228589"/>
<path id="Vector_89" d="M332.973 28.7569C332.973 30.0099 333.99 31.0271 335.243 31.0271C336.496 31.0271 337.514 30.0099 337.514 28.7569C337.514 27.5039 336.496 26.4866 335.243 26.4866C333.99 26.4866 332.973 27.5039 332.973 28.7569V28.7569" fill="#228589"/>
<path id="Vector_90" d="M348.108 32.5407C348.108 33.7937 349.125 34.8109 350.378 34.8109C351.631 34.8109 352.649 33.7937 352.649 32.5407C352.649 31.2877 351.631 30.2704 350.378 30.2704C349.125 30.2704 348.108 31.2877 348.108 32.5407V32.5407" fill="#228589"/>
<path id="Vector_91" d="M363.243 36.3244C363.243 37.5774 364.261 38.5947 365.514 38.5947C366.767 38.5947 367.784 37.5774 367.784 36.3244C367.784 35.0714 366.767 34.0542 365.514 34.0542C364.261 34.0542 363.243 35.0714 363.243 36.3244V36.3244" fill="#228589"/>
<path id="Vector_92" d="M340.541 43.892C340.541 45.145 341.558 46.1623 342.811 46.1623C344.064 46.1623 345.081 45.145 345.081 43.892C345.081 42.639 344.064 41.6217 342.811 41.6217C341.558 41.6217 340.541 42.639 340.541 43.892V43.892" fill="#228589"/>
<path id="Vector_93" d="M355.676 47.6758C355.676 48.9288 356.693 49.9461 357.946 49.9461C359.199 49.9461 360.216 48.9288 360.216 47.6758C360.216 46.4228 359.199 45.4055 357.946 45.4055C356.693 45.4055 355.676 46.4228 355.676 47.6758V47.6758" fill="#228589"/>
<path id="Vector_94" d="M370.811 51.4596C370.811 52.7126 371.828 53.7298 373.081 53.7298C374.334 53.7298 375.351 52.7126 375.351 51.4596C375.351 50.2066 374.334 49.1893 373.081 49.1893C371.828 49.1893 370.811 50.2066 370.811 51.4596V51.4596" fill="#228589"/>
<path id="Vector_95" d="M348.108 59.0271C348.108 60.2801 349.125 61.2974 350.378 61.2974C351.631 61.2974 352.649 60.2801 352.649 59.0271C352.649 57.7741 351.631 56.7569 350.378 56.7569C349.125 56.7569 348.108 57.7741 348.108 59.0271V59.0271" fill="#228589"/>
<path id="Vector_96" d="M363.243 62.8109C363.243 64.0639 364.261 65.0812 365.514 65.0812C366.767 65.0812 367.784 64.0639 367.784 62.8109C367.784 61.5579 366.767 60.5406 365.514 60.5406C364.261 60.5406 363.243 61.5579 363.243 62.8109V62.8109" fill="#228589"/>
<path id="Vector_97" d="M374.595 74.1623C374.595 75.4153 375.612 76.4326 376.865 76.4326C378.118 76.4326 379.135 75.4153 379.135 74.1623C379.135 72.9093 378.118 71.892 376.865 71.892C375.612 71.892 374.595 72.9093 374.595 74.1623V74.1623" fill="#228589"/>
<path id="Vector_98" d="M382.162 85.5136C382.162 86.7666 383.179 87.7839 384.432 87.7839C385.685 87.7839 386.703 86.7666 386.703 85.5136C386.703 84.2606 385.685 83.2434 384.432 83.2434C383.179 83.2434 382.162 84.2606 382.162 85.5136V85.5136" fill="#228589"/>
<path id="Vector_99" d="M385.946 96.865C385.946 98.118 386.963 99.1353 388.216 99.1353C389.469 99.1353 390.486 98.118 390.486 96.865C390.486 95.612 389.469 94.5947 388.216 94.5947C386.963 94.5947 385.946 95.612 385.946 96.865V96.865" fill="#228589"/>
</g>
</svg>
