<svg preserveAspectRatio="none" overflow="visible" style="display: block;" width="450" height="775.5" viewBox="0 0 450 775.5" fill="none" xmlns="http://www.w3.org/2000/svg">
<g id="SVG" opacity="0.2" clip-path="url(#clip0_0_34)">
<path id="Vector" d="M280 387.75C280 558.954 423.387 697.95 600 697.95C776.613 697.95 920 558.954 920 387.75C920 216.546 776.613 77.55 600 77.55C423.387 77.55 280 216.546 280 387.75V387.75" stroke="#1DA5AA" stroke-width="0.984688"/>
<path id="Vector_2" d="M180 387.75C180 612.455 368.196 794.888 600 794.888C831.804 794.888 1020 612.455 1020 387.75C1020 163.045 831.804 -19.3875 600 -19.3875C368.196 -19.3875 180 163.045 180 387.75V387.75" stroke="#1DA5AA" stroke-width="0.984688"/>
<path id="Vector_3" d="M80 387.75C80 665.957 313.004 891.825 600 891.825C886.996 891.825 1120 665.957 1120 387.75C1120 109.543 886.996 -116.325 600 -116.325C313.004 -116.325 80 109.543 80 387.75V387.75" stroke="#1DA5AA" stroke-width="0.984688"/>
<path id="Vector_4" d="M-20 387.75C-20 719.458 257.813 988.763 600 988.763C942.187 988.763 1220 719.458 1220 387.75C1220 56.0422 942.187 -213.262 600 -213.262C257.813 -213.262 -20 56.0422 -20 387.75V387.75" stroke="#1DA5AA" stroke-width="0.984688"/>
</g>
<defs>
<clipPath id="clip0_0_34">
<rect width="450" height="775.5" fill="white"/>
</clipPath>
</defs>
</svg>
